<svg xmlns="http://www.w3.org/2000/svg" xmlns:xlink="http://www.w3.org/1999/xlink" version="1.1" x="0px" y="0px" viewBox="0 0 100 125" enable-background="new 0 0 100 100" xml:space="preserve"><path fill="#000000" d="M33.883,26.69h32.235c4.879,0,8.869-3.497,8.869-7.771c0-4.272-3.99-7.77-8.869-7.77H33.883  c-4.879,0-8.87,3.497-8.87,7.77C25.013,23.193,29.004,26.69,33.883,26.69z"/><path fill="#000000" d="M66.118,73.31H33.883c-4.879,0-8.87,3.497-8.87,7.771c0,4.272,3.991,7.77,8.87,7.77h32.235  c4.879,0,8.869-3.497,8.869-7.77C74.987,76.807,70.997,73.31,66.118,73.31z"/><path fill="#000000" d="M86.13,42.23H13.871c-4.879,0-8.87,3.496-8.87,7.77s3.991,7.77,8.87,7.77H86.13  c4.879,0,8.869-3.496,8.869-7.77S91.009,42.23,86.13,42.23z"/><text x="0" y="115" fill="#000000" font-size="5px" font-weight="bold" font-family="'Helvetica Neue', Helvetica, Arial-Unicode, Arial, Sans-serif">Created by Mert Güler</text><text x="0" y="120" fill="#000000" font-size="5px" font-weight="bold" font-family="'Helvetica Neue', Helvetica, Arial-Unicode, Arial, Sans-serif">from the Noun Project</text></svg>